<svg width="696" height="105" viewBox="0 0 696 105" fill="none" xmlns="http://www.w3.org/2000/svg">
<g clip-path="url(#clip0_2_3)">
<path d="M48.048 63.408C51.824 63.408 53.712 60.304 53.712 54.096C53.712 47.824 51.824 44.688 48.048 44.688C46.576 44.688 45.232 45.2 44.016 46.224C42.864 47.184 42.288 48.56 42.288 50.352V57.744C42.288 59.536 42.864 60.944 44.016 61.968C45.232 62.928 46.576 63.408 48.048 63.408ZM11.952 73.488L11.76 42.096C11.76 32.496 11.856 23.152 12.048 14.064C12.112 11.952 12.496 10.384 13.2 9.36C13.968 8.336 15.408 7.824 17.52 7.824H35.952C38.064 7.824 39.472 8.336 40.176 9.36C40.944 10.32 41.424 12.464 41.616 15.792C41.872 19.12 42 25.008 42 33.456C42 33.84 42.096 34.16 42.288 34.416C42.48 34.608 42.768 34.544 43.152 34.224C47.632 30 53.04 27.888 59.376 27.888C65.776 27.888 70.96 29.936 74.928 34.032C78.96 38.064 80.976 44.656 80.976 53.808C80.976 62.896 78.96 69.424 74.928 73.392C70.896 77.296 65.616 79.248 59.088 79.248C49.488 79.248 43.408 77.04 40.848 72.624C40.784 74.288 40.176 75.568 39.024 76.464C37.872 77.36 36.592 77.872 35.184 78C33.776 78.128 31.216 78.192 27.504 78.192L17.328 78C16.112 78 14.896 77.584 13.68 76.752C12.528 75.856 11.952 74.768 11.952 73.488ZM96.5782 81.744C105.026 81.744 109.25 80.496 109.25 78C109.25 77.168 108.738 75.92 107.714 74.256C103.042 66.96 96.1303 54.384 86.9783 36.528C86.2743 35.056 85.9223 33.904 85.9223 33.072C85.9223 30.448 87.2343 29.136 89.8583 29.136H110.978C113.026 29.136 114.562 29.456 115.586 30.096C116.674 30.736 117.698 31.952 118.658 33.744L127.586 50.448C127.97 51.216 128.514 51.6 129.218 51.6C129.922 51.6 130.466 51.216 130.85 50.448L140.066 31.344C140.642 30.064 141.314 29.36 142.082 29.232C142.338 29.232 142.818 29.2 143.522 29.136H153.602C154.498 29.136 155.138 29.552 155.522 30.384C155.65 30.768 155.714 31.216 155.714 31.728C155.714 32.176 155.458 32.88 154.946 33.84C154.498 34.736 152.098 39.824 147.746 49.104C143.394 58.384 140.066 65.2 137.762 69.552C135.522 73.904 133.922 76.88 132.962 78.48C132.066 80.08 130.85 81.968 129.314 84.144C127.778 86.384 126.306 88.048 124.898 89.136C123.49 90.288 121.73 91.44 119.618 92.592C115.906 94.576 111.138 95.568 105.314 95.568C99.5543 95.568 95.7463 95.056 93.8903 94.032C92.0343 93.072 91.1063 90.928 91.1063 87.6C91.1063 86 91.3943 84.624 91.9703 83.472C92.6103 82.32 93.4423 81.744 94.4663 81.744H96.5782ZM207.935 29.136H226.655C228.831 29.136 230.335 29.616 231.167 30.576C231.999 31.472 232.415 32.848 232.415 34.704V38.16C235.999 31.376 241.823 27.984 249.887 27.984C252.575 27.984 254.783 28.848 256.511 30.576C258.239 32.304 259.103 34.608 259.103 37.488C259.103 40.368 258.335 43.248 256.799 46.128C255.263 48.944 253.119 50.352 250.367 50.352C249.087 50.352 247.295 49.712 244.991 48.432C242.687 47.088 240.831 46.416 239.423 46.416C238.015 46.416 236.543 46.928 235.007 47.952C233.535 48.976 232.799 50.672 232.799 53.04C232.799 63.344 232.607 70.16 232.223 73.488C232.031 74.576 231.487 75.536 230.591 76.368C229.695 77.2 228.095 77.712 225.791 77.904C223.551 78.032 221.311 78.096 219.071 78.096C216.831 78.096 213.023 77.968 207.647 77.712C206.111 77.648 204.895 77.2 203.999 76.368C203.103 75.536 202.591 74.576 202.463 73.488C202.015 69.328 201.791 62.96 201.791 54.384C201.791 45.808 201.919 39.952 202.175 36.816C202.431 33.616 202.911 31.536 203.615 30.576C204.319 29.616 205.759 29.136 207.935 29.136ZM278.133 32.112C281.077 30.64 284.085 29.584 287.157 28.944C290.293 28.304 294.133 27.984 298.677 27.984C303.285 27.984 307.669 28.56 311.829 29.712C315.989 30.8 319.093 32.304 321.141 34.224C324.725 37.744 326.517 41.872 326.517 46.608C326.517 54.032 320.245 57.744 307.701 57.744C303.285 57.744 298.709 57.328 293.973 56.496C294.165 60.72 294.933 63.696 296.277 65.424C297.685 67.152 300.149 68.016 303.669 68.016C307.189 68.016 310.101 67.632 312.405 66.864C314.709 66.096 316.565 65.328 317.973 64.56C319.381 63.728 320.565 63.312 321.525 63.312C322.549 63.312 323.413 63.76 324.117 64.656C325.205 65.808 325.749 67.408 325.749 69.456C325.749 71.44 325.333 72.816 324.501 73.584C323.733 74.288 322.485 74.992 320.757 75.696C314.677 78.256 306.037 79.536 294.837 79.536C285.557 79.536 277.909 77.328 271.893 72.912C265.941 68.432 262.965 62.416 262.965 54.864C262.965 51.216 263.637 47.888 264.981 44.88C266.325 41.808 268.117 39.28 270.357 37.296C272.597 35.248 275.189 33.52 278.133 32.112ZM300.405 38.928C296.501 38.928 294.389 42.096 294.069 48.432C297.141 48.688 298.741 48.816 298.869 48.816C303.093 48.816 305.205 47.408 305.205 44.592C305.205 40.816 303.605 38.928 300.405 38.928ZM377.799 73.872L377.895 50.448C377.895 48.528 377.415 47.088 376.455 46.128C375.495 45.168 374.279 44.688 372.807 44.688C371.399 44.688 370.087 45.2 368.871 46.224C367.719 47.184 367.143 48.56 367.143 50.352V56.208C367.143 64.656 366.951 70.416 366.567 73.488C366.375 74.576 365.831 75.536 364.935 76.368C364.039 77.2 362.439 77.712 360.135 77.904C357.895 78.032 355.655 78.096 353.415 78.096C351.175 78.096 347.367 77.968 341.991 77.712C340.455 77.648 339.239 77.2 338.343 76.368C337.447 75.536 336.935 74.576 336.807 73.488C336.359 69.328 336.135 62.96 336.135 54.384C336.135 45.808 336.263 39.952 336.519 36.816C336.775 33.616 337.255 31.536 337.959 30.576C338.663 29.616 340.103 29.136 342.279 29.136H360.999C363.175 29.136 364.615 29.616 365.319 30.576C366.087 31.536 366.567 33.168 366.759 35.472V35.568C371.687 30.448 377.671 27.888 384.711 27.888C391.815 27.888 397.383 29.616 401.415 33.072C405.447 36.528 407.495 41.296 407.559 47.376C407.687 53.456 407.751 58.896 407.751 63.696C407.751 68.496 407.719 71.728 407.655 73.392C407.591 75.056 407.143 76.272 406.311 77.04C405.543 77.744 404.007 78.096 401.703 78.096L383.271 78.288C381.223 78.288 379.783 77.936 378.951 77.232C378.183 76.464 377.799 75.344 377.799 73.872ZM449.842 43.824C446.066 43.824 444.178 46.608 444.178 52.176C444.178 57.68 446.002 60.432 449.65 60.432C451.25 60.432 452.626 60.016 453.778 59.184C454.994 58.288 455.602 57.04 455.602 55.44V48.816C455.602 47.28 454.994 46.064 453.778 45.168C452.626 44.272 451.314 43.824 449.842 43.824ZM485.938 33.744L486.13 63.216C486.13 69.616 486.098 74.48 486.034 77.808C485.97 81.136 485.01 84.144 483.154 86.832C481.298 89.52 478.77 91.632 475.57 93.168C469.298 96.048 460.946 97.488 450.514 97.488C440.082 97.488 431.538 96.08 424.882 93.264C423.282 92.56 422.098 91.792 421.33 90.96C420.626 90.192 420.274 88.784 420.274 86.736C420.274 84.752 420.658 83.28 421.426 82.32C422.258 81.36 423.218 80.88 424.306 80.88C425.394 80.88 426.738 81.264 428.338 82.032C433.266 84.464 438.194 85.68 443.122 85.68C445.362 85.68 447.378 85.424 449.17 84.912C450.962 84.464 452.53 83.504 453.874 82.032C455.282 80.56 455.986 78.672 455.986 76.368L455.89 71.28C455.89 70.64 455.698 70.32 455.314 70.32C455.122 70.32 454.93 70.416 454.738 70.608C449.618 75.536 443.986 78 437.842 78C431.698 78 426.546 76.048 422.386 72.144C418.29 68.24 416.242 62.064 416.242 53.616C416.242 45.168 418.674 38.8 423.538 34.512C428.402 30.16 434.354 27.984 441.394 27.984C448.434 27.984 453.65 30.192 457.042 34.608C457.106 32.944 457.714 31.664 458.866 30.768C460.018 29.872 461.298 29.36 462.706 29.232C464.114 29.104 466.674 29.04 470.386 29.04L480.562 29.232C481.778 29.232 482.962 29.68 484.114 30.576C485.33 31.408 485.938 32.464 485.938 33.744ZM597.41 29.232C598.69 29.232 599.33 30.032 599.33 31.632C599.33 32.144 599.042 33.168 598.466 34.704C597.954 36.24 596.77 39.664 594.914 44.976C593.122 50.224 591.778 54.064 590.882 56.496C588.386 63.28 585.73 69.424 582.914 74.928C582.018 76.592 580.386 77.872 578.018 78.768C575.65 79.664 572.898 80.112 569.762 80.112C566.626 80.112 563.522 79.632 560.45 78.672C557.442 77.776 555.426 76.368 554.402 74.448C553.378 72.464 552.066 69.488 550.466 65.52C548.866 61.552 547.906 59.248 547.586 58.608C544.322 67.44 542.178 72.784 541.154 74.64C540.194 76.496 538.53 77.872 536.162 78.768C533.794 79.664 531.042 80.112 527.906 80.112C524.77 80.112 521.666 79.632 518.594 78.672C515.586 77.776 513.634 76.464 512.738 74.736C507.298 64.24 501.794 51.504 496.226 36.528C495.65 34.928 495.362 33.584 495.362 32.496C495.362 30.256 496.61 29.136 499.106 29.136H519.266C521.57 29.136 523.33 29.456 524.546 30.096C525.762 30.672 526.562 31.888 526.946 33.744L531.266 50.448C531.458 51.216 531.97 51.6 532.802 51.6C533.698 51.6 534.274 51.216 534.53 50.448L542.594 33.456C543.746 30.512 545.698 29.04 548.45 29.04H558.818C560.994 29.04 562.626 29.36 563.714 30C564.866 30.576 565.794 31.792 566.498 33.648L573.122 50.448C573.378 51.216 573.922 51.6 574.754 51.6C575.586 51.6 576.13 51.216 576.386 50.448L583.874 31.44C584.258 30.48 584.674 29.872 585.122 29.616C585.634 29.296 586.306 29.168 587.138 29.232H597.41ZM636.065 33.36L635.969 56.784C635.969 58.64 636.385 60.048 637.217 61.008C638.049 61.968 639.105 62.448 640.385 62.448C641.729 62.448 642.977 61.968 644.129 61.008C645.345 59.984 646.209 58.608 646.721 56.88V51.024C646.721 42.576 646.913 36.816 647.297 33.744C647.489 32.656 648.033 31.696 648.929 30.864C649.825 30.032 651.393 29.552 653.633 29.424C655.937 29.232 658.209 29.136 660.449 29.136C662.689 29.136 666.497 29.264 671.873 29.52C673.409 29.584 674.625 30.032 675.521 30.864C676.417 31.696 676.929 32.656 677.057 33.744C677.505 37.904 677.729 44.304 677.729 52.944C677.729 61.52 677.601 67.376 677.345 70.512C677.089 73.648 676.609 75.696 675.905 76.656C675.201 77.616 673.761 78.096 671.585 78.096H652.865C650.689 78.096 649.217 77.616 648.449 76.656C647.745 75.696 647.297 74.064 647.105 71.76V71.664C640.513 76.72 633.825 79.248 627.041 79.248C620.257 79.248 615.105 77.584 611.585 74.256C608.129 70.864 606.337 66.096 606.209 59.952C606.145 53.808 606.113 48.336 606.113 43.536C606.113 38.736 606.145 35.504 606.209 33.84C606.273 32.176 606.689 30.992 607.457 30.288C608.289 29.52 609.857 29.136 612.161 29.136L630.593 28.944C632.641 28.944 634.049 29.328 634.817 30.096C635.649 30.8 636.065 31.888 636.065 33.36Z" fill="black"/>
</g>
<defs>
<clipPath id="clip0_2_3">
<rect width="696" height="105" fill="white"/>
</clipPath>
</defs>
</svg>
