<svg width="734" height="170" viewBox="0 0 734 170" fill="none" xmlns="http://www.w3.org/2000/svg">
<g clip-path="url(#clip0_1_2)">
<path d="M120.36 13.792C122.728 16.736 125.448 20.544 128.52 25.216C131.592 29.824 133.736 32.896 134.952 34.432C136.168 35.968 137.128 36.736 137.832 36.736C138.6 36.736 139.272 36.32 139.848 35.488C140.424 34.656 142.536 31.456 146.184 25.888C149.832 20.32 152.84 16.096 155.208 13.216C157.576 10.272 159.464 8.768 160.872 8.704C162.28 8.64 164.104 8.608 166.344 8.608C168.584 8.608 171.208 8.672 174.216 8.8C177.224 8.928 179.208 9.728 180.168 11.2C181.192 12.608 181.8 14.624 181.992 17.248C182.376 23.968 182.568 32.896 182.568 44.032C182.568 55.104 182.28 63.84 181.704 70.24C181.576 71.776 181 73.152 179.976 74.368C178.952 75.584 177.544 76.192 175.752 76.192C171.848 76.256 167.496 76.288 162.696 76.288C157.96 76.288 154.184 76.192 151.368 76C150.344 75.936 149.416 75.552 148.584 74.848C147.816 74.08 147.4 73.088 147.336 71.872L146.76 56.032C146.696 54.496 146.344 53.632 145.704 53.44C145.128 53.248 144.584 53.664 144.072 54.688C140.68 60.704 136.456 67.424 131.4 74.848C130.184 76.704 128.584 77.632 126.6 77.632C124.616 77.632 122.984 76.704 121.704 74.848C119.464 71.648 115.656 64.864 110.28 54.496C109.96 53.856 109.576 53.472 109.128 53.344C108.744 53.216 108.392 53.376 108.072 53.824C107.752 54.272 107.592 55.008 107.592 56.032L107.112 71.872C107.048 73.088 106.504 74.08 105.48 74.848C104.456 75.552 103.272 75.936 101.928 76H92.424C90.696 75.936 89.288 75.328 88.2 74.176C87.176 73.024 86.568 71.712 86.376 70.24C85.864 64.544 85.608 55.712 85.608 43.744C85.608 31.712 85.768 22.88 86.088 17.248C86.28 14.56 86.888 12.48 87.912 11.008C88.936 9.536 90.76 8.8 93.384 8.8C106.824 8.8 114.088 8.896 115.176 9.088C116.264 9.28 117.992 10.848 120.36 13.792ZM255.736 13.312L287.128 66.4C288.408 68.512 289.048 70.304 289.048 71.776C289.048 73.184 288.472 74.24 287.32 74.944C286.168 75.648 284.824 76 283.288 76H252.376C249.24 76 247.224 75.424 246.328 74.272C246.072 73.888 245.72 73.216 245.272 72.256L242.488 66.304C241.656 64.448 239.704 63.392 236.632 63.136H218.488C217.144 63.136 216.12 63.264 215.416 63.52C214.712 63.776 214.136 64.352 213.688 65.248L209.944 73.024C209.304 74.176 208.6 74.976 207.832 75.424C207.064 75.808 205.944 76 204.472 76H195.832C193.336 76 191.992 75.104 191.8 73.312C191.736 73.056 191.704 72.8 191.704 72.544C191.704 71.072 192.184 69.664 193.144 68.32L223.192 15.328C226.072 10.336 230.744 7.84 237.208 7.84H244.888C250.008 7.84 253.624 9.664 255.736 13.312ZM224.632 37.888L220.216 46.624C219.96 47.2 219.832 47.712 219.832 48.16C219.832 49.824 220.632 50.656 222.232 50.656H230.968C232.312 50.656 233.24 50.336 233.752 49.696C234.264 48.992 234.52 48.384 234.52 47.872C234.52 47.36 234.424 46.848 234.232 46.336L230.584 38.08C229.816 36.416 228.824 35.584 227.608 35.584C226.392 35.584 225.4 36.352 224.632 37.888ZM337.718 28.864L337.91 46.624C337.91 47.84 338.582 48.448 339.926 48.448C343.894 48.448 346.998 47.36 349.238 45.184C351.542 42.944 352.694 40.32 352.694 37.312C352.694 34.304 351.606 31.712 349.43 29.536C347.318 27.36 344.182 26.272 340.022 26.272C338.486 26.272 337.718 27.136 337.718 28.864ZM362.87 57.568C364.086 58.848 368.406 63.68 375.83 72.064C376.278 72.64 376.502 73.152 376.502 73.6C376.502 75.264 375.766 76.096 374.294 76.096C370.902 76.16 367.478 76.192 364.022 76.192C360.63 76.192 357.238 76.16 353.846 76.096C351.99 76.096 350.294 75.36 348.758 73.888L340.502 61.408C340.182 61.024 339.798 60.768 339.35 60.64C338.326 60.256 337.814 60.672 337.814 61.888V71.68C337.814 74.432 335.99 75.904 332.342 76.096C328.758 76.288 324.822 76.384 320.534 76.384C316.246 76.384 311.062 76.224 304.982 75.904C303.126 75.776 301.622 75.136 300.47 73.984C299.382 72.832 298.742 71.52 298.55 70.048C298.038 64.416 297.782 55.584 297.782 43.552C297.782 31.456 297.974 22.656 298.358 17.152C298.742 11.648 301.526 8.86399 306.71 8.8C311.574 8.736 318.198 8.704 326.582 8.704C334.966 8.704 341.91 8.768 347.414 8.89599C355.35 9.024 361.846 11.968 366.902 17.728C371.958 23.488 374.486 29.984 374.486 37.216C374.486 41.44 373.494 45.344 371.51 48.928C369.59 52.512 366.71 55.392 362.87 57.568ZM424.794 48.16L424.698 60.64C424.698 61.216 424.89 61.728 425.274 62.176C425.658 62.56 426.17 62.752 426.81 62.752C430.714 62.752 433.914 61.984 436.41 60.448C438.97 58.912 440.25 56.512 440.25 53.248C440.25 49.92 438.938 47.616 436.314 46.336C434.202 45.312 431.898 44.8 429.402 44.8C428.762 44.8 428.122 44.832 427.482 44.896C425.69 45.024 424.794 46.112 424.794 48.16ZM424.698 21.76L424.794 29.632C424.794 30.848 425.53 31.456 427.002 31.456C433.466 31.456 436.698 29.632 436.698 25.984C436.698 21.76 433.818 19.648 428.058 19.648C427.674 19.648 427.322 19.648 427.002 19.648C425.466 19.648 424.698 20.352 424.698 21.76ZM393.306 8.89599C401.242 8.64 411.162 8.512 423.066 8.512C434.97 8.512 443.194 8.64 447.738 8.89599C452.346 9.088 456.41 10.848 459.93 14.176C463.45 17.504 465.21 21.344 465.21 25.696C465.21 31.008 462.906 34.912 458.298 37.408C457.85 37.664 457.626 37.984 457.626 38.368C457.626 38.688 457.85 38.912 458.298 39.04C461.626 39.936 464.41 41.856 466.65 44.8C468.954 47.744 470.106 51.232 470.106 55.264C470.106 60.32 468.154 64.896 464.25 68.992C460.346 73.088 454.362 75.328 446.298 75.712C438.234 76.032 432.41 76.192 428.826 76.192C425.242 76.192 413.274 76.096 392.922 75.904C391.066 75.904 389.562 75.328 388.41 74.176C387.258 72.96 386.586 71.584 386.394 70.048C385.882 64.416 385.626 56.224 385.626 45.472C385.626 34.656 385.85 25.44 386.298 17.824C386.49 14.688 387.034 12.448 387.93 11.104C388.826 9.696 390.618 8.96 393.306 8.89599ZM519.511 31.936L519.415 51.136C519.415 53.952 519.831 56.064 520.663 57.472C521.559 58.816 523.383 59.488 526.135 59.488H550.423C553.367 59.552 554.839 61.792 554.839 66.208C554.839 69.6 554.423 72.064 553.591 73.6C552.759 75.136 551.063 75.936 548.503 76C539.479 76.256 530.551 76.384 521.719 76.384C512.887 76.384 501.623 76.32 487.927 76.192C485.623 76.192 483.735 75.648 482.263 74.56C480.855 73.408 480.055 71.84 479.863 69.856C479.351 64.288 479.095 55.52 479.095 43.552C479.095 31.52 479.223 23.424 479.479 19.264C479.799 15.04 480.407 12.256 481.303 10.912C482.199 9.504 483.959 8.8 486.583 8.8H512.311C514.999 8.8 516.759 9.504 517.591 10.912C518.487 12.32 519.031 14.592 519.223 17.728C519.415 20.864 519.511 25.6 519.511 31.936ZM568.989 76C567.197 76 565.661 75.424 564.381 74.272C563.165 73.056 562.365 71.104 561.981 68.416C561.661 65.664 561.501 57.504 561.501 43.936C561.501 30.304 561.725 21.408 562.173 17.248C562.685 11.872 564.957 9.12 568.989 8.992C573.597 8.864 592.701 8.8 626.301 8.8C630.077 8.8 631.965 11.2 631.965 16C631.965 19.776 630.301 21.664 626.973 21.664H605.853C604.509 21.664 603.421 22.112 602.589 23.008C601.821 23.904 601.437 25.056 601.437 26.464V33.376C601.437 35.296 602.301 36.256 604.029 36.256H621.501C622.525 36.256 623.293 36.352 623.805 36.544C624.381 36.736 624.893 37.312 625.341 38.272C625.789 39.168 626.013 40.672 626.013 42.784C626.013 44.896 625.629 46.304 624.861 47.008C624.157 47.712 622.973 48.064 621.309 48.064H605.661C604.061 48.064 602.941 48.48 602.301 49.312C601.725 50.08 601.437 51.296 601.437 52.96V57.664C601.437 60.416 602.749 61.792 605.373 61.792H629.277C630.429 61.792 631.453 62.144 632.349 62.848C633.245 63.488 633.693 64.96 633.693 67.264C633.693 69.504 633.149 71.52 632.061 73.312C630.973 75.104 629.693 76 628.221 76H568.989Z" fill="black"/>
<path d="M41.52 159.92C36.016 159.92 30.864 159.312 26.064 158.096C21.328 156.88 17.968 155.664 15.984 154.448C14.064 153.232 12.784 152.368 12.144 151.856C10.48 150.512 9.648 148.656 9.648 146.288C9.648 144.432 9.872 142.672 10.32 141.008C11.152 137.872 12.656 136.304 14.832 136.304C15.536 136.368 17.776 137.104 21.552 138.512C25.392 139.92 28.4 140.624 30.576 140.624C33.84 140.624 35.472 139.344 35.472 136.784C35.472 135.248 34.672 133.84 33.072 132.56C31.472 131.216 29.52 129.936 27.216 128.72C24.976 127.504 22.704 126.128 20.4 124.592C18.096 122.992 16.144 120.816 14.544 118.064C12.944 115.248 12.144 111.984 12.144 108.272C12.144 102.128 15.152 97.328 21.168 93.872C27.184 90.352 34.96 88.592 44.496 88.592C54.032 88.592 61.584 89.584 67.152 91.568C72.784 93.488 75.6 96.176 75.6 99.632C75.6 102.128 75.024 104.336 73.872 106.256C72.72 108.112 71.504 109.04 70.224 109.04C69.776 109.04 68.272 108.56 65.712 107.6C63.216 106.576 60.944 106.064 58.896 106.064C54.864 106.064 52.848 107.632 52.848 110.768C52.848 112.304 53.808 113.712 55.728 114.992C57.648 116.272 59.952 117.52 62.64 118.736C65.392 119.888 68.144 121.2 70.896 122.672C73.648 124.144 75.984 126.16 77.904 128.72C79.824 131.28 80.784 134.384 80.784 138.032C80.784 141.68 79.6 145.008 77.232 148.016C74.928 151.024 71.856 153.36 68.016 155.024C60.4 158.288 51.568 159.92 41.52 159.92ZM135.753 159.92C128.009 159.92 121.001 158.928 114.729 156.944C108.457 154.896 103.369 152.176 99.465 148.784C95.561 145.392 92.585 141.616 90.537 137.456C88.489 133.232 87.465 128.848 87.465 124.304C87.465 119.76 88.489 115.408 90.537 111.248C92.649 107.024 95.625 103.216 99.465 99.824C103.369 96.432 108.457 93.712 114.729 91.664C121.001 89.616 127.881 88.592 135.369 88.592C142.857 88.592 149.481 89.52 155.241 91.376C161.001 93.232 165.641 95.76 169.161 98.96C176.329 105.488 179.913 113.232 179.913 122.192C179.913 126.736 178.921 131.184 176.937 135.536C175.017 139.888 172.233 143.856 168.585 147.44C165.001 150.96 160.361 153.872 154.665 156.176C148.969 158.416 142.665 159.664 135.753 159.92ZM154.761 122.672C154.761 119.6 153.673 116.944 151.497 114.704C149.321 112.4 145.993 111.248 141.513 111.248C137.097 111.248 133.577 112.432 130.953 114.8C128.329 117.168 127.017 120.048 127.017 123.44C127.017 126.832 128.393 129.552 131.145 131.6C133.897 133.648 137.193 134.672 141.033 134.672C144.937 134.672 148.201 133.424 150.825 130.928C153.449 128.432 154.761 125.68 154.761 122.672ZM229.542 113.936L229.446 133.136C229.446 135.952 229.862 138.064 230.694 139.472C231.59 140.816 233.414 141.488 236.166 141.488H260.454C263.398 141.552 264.87 143.792 264.87 148.208C264.87 151.6 264.454 154.064 263.622 155.6C262.79 157.136 261.094 157.936 258.534 158C249.51 158.256 240.582 158.384 231.75 158.384C222.918 158.384 211.654 158.32 197.958 158.192C195.654 158.192 193.766 157.648 192.294 156.56C190.886 155.408 190.086 153.84 189.894 151.856C189.382 146.288 189.126 137.52 189.126 125.552C189.126 113.52 189.254 105.424 189.51 101.264C189.83 97.04 190.438 94.256 191.334 92.912C192.23 91.504 193.99 90.8 196.614 90.8H222.342C225.03 90.8 226.79 91.504 227.622 92.912C228.518 94.32 229.062 96.592 229.254 99.728C229.446 102.864 229.542 107.6 229.542 113.936ZM279.404 90.8H305.132C307.82 90.8 309.58 91.472 310.412 92.816C311.308 94.16 311.884 96.944 312.14 101.168C312.46 105.328 312.62 113.456 312.62 125.552C312.62 137.584 312.364 146.416 311.852 152.048C311.66 153.52 310.988 154.832 309.836 155.984C308.748 157.136 307.276 157.776 305.42 157.904C301.772 158.16 297.548 158.288 292.748 158.288C287.948 158.288 283.404 158.16 279.116 157.904C277.26 157.776 275.756 157.136 274.604 155.984C273.516 154.832 272.876 153.52 272.684 152.048C272.172 146.416 271.916 137.584 271.916 125.552C271.916 113.456 272.044 105.328 272.3 101.168C272.62 96.944 273.196 94.16 274.028 92.816C274.924 91.472 276.716 90.8 279.404 90.8ZM378.759 152.144C378.695 153.552 378.087 154.864 376.935 156.08C375.783 157.232 374.247 157.872 372.327 158C368.679 158.256 364.295 158.384 359.175 158.384C354.055 158.384 349.351 158.256 345.063 158C343.143 157.872 341.607 157.232 340.455 156.08C339.303 154.864 338.695 153.552 338.631 152.144C338.439 142.416 338.343 134.128 338.343 127.28C338.343 120.368 338.375 115.312 338.439 112.112C338.439 109.68 337.351 108.464 335.175 108.464H326.535C325.191 108.464 324.103 108.144 323.271 107.504C322.439 106.864 321.959 105.744 321.831 104.144C321.767 102.544 321.735 100.88 321.735 99.152C321.735 97.424 321.767 95.952 321.831 94.736C321.959 93.456 322.471 92.496 323.367 91.856C324.327 91.152 325.351 90.8 326.439 90.8C334.759 90.672 346.023 90.608 360.231 90.608C374.439 90.608 384.615 90.672 390.759 90.8C391.847 90.864 392.839 91.216 393.735 91.856C394.695 92.496 395.207 93.456 395.271 94.736C395.399 95.952 395.463 97.392 395.463 99.056C395.463 100.72 395.431 102.32 395.367 103.856C395.175 106.736 393.607 108.176 390.663 108.176H382.023C379.847 108.176 378.759 109.296 378.759 111.536C378.951 119.6 379.047 126.896 379.047 133.424C379.047 139.952 378.951 146.192 378.759 152.144ZM466.205 95.312L497.597 148.4C498.877 150.512 499.517 152.304 499.517 153.776C499.517 155.184 498.941 156.24 497.789 156.944C496.637 157.648 495.293 158 493.757 158H462.845C459.709 158 457.693 157.424 456.797 156.272C456.541 155.888 456.189 155.216 455.741 154.256L452.957 148.304C452.125 146.448 450.173 145.392 447.101 145.136H428.957C427.613 145.136 426.589 145.264 425.885 145.52C425.181 145.776 424.605 146.352 424.156 147.248L420.413 155.024C419.773 156.176 419.069 156.976 418.301 157.424C417.533 157.808 416.413 158 414.941 158H406.301C403.805 158 402.461 157.104 402.269 155.312C402.205 155.056 402.173 154.8 402.173 154.544C402.173 153.072 402.653 151.664 403.613 150.32L433.661 97.328C436.541 92.336 441.213 89.84 447.677 89.84H455.357C460.477 89.84 464.093 91.664 466.205 95.312ZM435.101 119.888L430.685 128.624C430.429 129.2 430.301 129.712 430.301 130.16C430.301 131.824 431.101 132.656 432.701 132.656H441.437C442.781 132.656 443.709 132.336 444.221 131.696C444.733 130.992 444.989 130.384 444.989 129.872C444.989 129.36 444.893 128.848 444.701 128.336L441.053 120.08C440.285 118.416 439.293 117.584 438.077 117.584C436.861 117.584 435.869 118.352 435.101 119.888ZM516.123 90.8H541.851C544.539 90.8 546.299 91.472 547.131 92.816C548.027 94.16 548.603 96.944 548.859 101.168C549.179 105.328 549.339 113.456 549.339 125.552C549.339 137.584 549.083 146.416 548.571 152.048C548.379 153.52 547.707 154.832 546.555 155.984C545.467 157.136 543.995 157.776 542.139 157.904C538.491 158.16 534.267 158.288 529.467 158.288C524.667 158.288 520.123 158.16 515.835 157.904C513.979 157.776 512.475 157.136 511.323 155.984C510.235 154.832 509.595 153.52 509.403 152.048C508.891 146.416 508.635 137.584 508.635 125.552C508.635 113.456 508.763 105.328 509.019 101.168C509.339 96.944 509.915 94.16 510.747 92.816C511.643 91.472 513.435 90.8 516.123 90.8ZM600.406 110.864L600.598 128.624C600.598 129.84 601.27 130.448 602.614 130.448C606.582 130.448 609.686 129.36 611.926 127.184C614.23 124.944 615.382 122.32 615.382 119.312C615.382 116.304 614.294 113.712 612.118 111.536C610.006 109.36 606.87 108.272 602.71 108.272C601.174 108.272 600.406 109.136 600.406 110.864ZM625.558 139.568C626.774 140.848 631.094 145.68 638.518 154.064C638.966 154.64 639.19 155.152 639.19 155.6C639.19 157.264 638.454 158.096 636.982 158.096C633.59 158.16 630.166 158.192 626.71 158.192C623.318 158.192 619.926 158.16 616.534 158.096C614.678 158.096 612.982 157.36 611.446 155.888L603.19 143.408C602.87 143.024 602.486 142.768 602.038 142.64C601.014 142.256 600.502 142.672 600.502 143.888V153.68C600.502 156.432 598.678 157.904 595.03 158.096C591.446 158.288 587.51 158.384 583.222 158.384C578.934 158.384 573.75 158.224 567.67 157.904C565.814 157.776 564.31 157.136 563.158 155.984C562.07 154.832 561.43 153.52 561.238 152.048C560.726 146.416 560.47 137.584 560.47 125.552C560.47 113.456 560.662 104.656 561.046 99.152C561.43 93.648 564.214 90.864 569.398 90.8C574.262 90.736 580.886 90.704 589.27 90.704C597.654 90.704 604.598 90.768 610.102 90.896C618.038 91.024 624.534 93.968 629.59 99.728C634.646 105.488 637.174 111.984 637.174 119.216C637.174 123.44 636.182 127.344 634.198 130.928C632.278 134.512 629.398 137.392 625.558 139.568ZM655.802 158C654.01 158 652.474 157.424 651.194 156.272C649.978 155.056 649.178 153.104 648.794 150.416C648.474 147.664 648.314 139.504 648.314 125.936C648.314 112.304 648.538 103.408 648.986 99.248C649.498 93.872 651.77 91.12 655.802 90.992C660.41 90.864 679.514 90.8 713.114 90.8C716.89 90.8 718.778 93.2 718.778 98C718.778 101.776 717.114 103.664 713.786 103.664H692.666C691.322 103.664 690.234 104.112 689.402 105.008C688.634 105.904 688.25 107.056 688.25 108.464V115.376C688.25 117.296 689.114 118.256 690.842 118.256H708.314C709.338 118.256 710.106 118.352 710.618 118.544C711.194 118.736 711.706 119.312 712.154 120.272C712.602 121.168 712.826 122.672 712.826 124.784C712.826 126.896 712.442 128.304 711.674 129.008C710.97 129.712 709.786 130.064 708.122 130.064H692.474C690.874 130.064 689.754 130.48 689.114 131.312C688.538 132.08 688.25 133.296 688.25 134.96V139.664C688.25 142.416 689.562 143.792 692.186 143.792H716.09C717.242 143.792 718.266 144.144 719.162 144.848C720.058 145.488 720.506 146.96 720.506 149.264C720.506 151.504 719.962 153.52 718.874 155.312C717.786 157.104 716.506 158 715.034 158H655.802Z" fill="black"/>
</g>
<defs>
<clipPath id="clip0_1_2">
<rect width="734" height="170" fill="white"/>
</clipPath>
</defs>
</svg>
